# xmcd
#
# Track frame offsets: 
#        150
#        10478
#        15820
#        20180
#        29319
#        37741
#        47530
#        56884
#        71552
#        82868
#        92344
#
# Disc length: 1330 seconds
#
# Revision: 0
# Processed by: cddbd v1.5.2PL0 Copyright (c) Steve Scherf et al.
# Submitted via: ExactAudioCopy v0.95b4
#
DISCID=7605300b
DTITLE=American Sheriff - Long Arm of the Law
DYEAR=2006
DGENRE=Country
TTITLE0=AMERICAN SHERIFF THEME
TTITLE1=LAW ENFORCETAINMENT
TTITLE2=ROUGH and TOUGH COWGUYS
TTITLE3=DOWN ON MY LUCK
TTITLE4=A GOOD BREAKFAST
TTITLE5=FARMING THE FUNK
TTITLE6=MAKE AN INDIAN YOUR FRIEND
TTITLE7=PUT YOUR HANDS UP
TTITLE8=MONTANA
TTITLE9=R SONG
TTITLE10=AMERICAN SHERIFF THEME 2
EXTD=
EXTT0=
EXTT1=
EXTT2=
EXTT3=
EXTT4=
EXTT5=
EXTT6=
EXTT7=
EXTT8=
EXTT9=
EXTT10=
PLAYORDER=
